<?xml version="1.0" encoding="utf-8"?>
<svg
      version="1.1"
      id="Layer_1"
      xmlns="http://www.w3.org/2000/svg"
      xmlns:xlink="http://www.w3.org/1999/xlink"
      x="0px"
      y="0px"
      viewBox="0 0 1920 1920"
      style="enable-background: new 0 0 1920 1920;"
      xml:space="preserve"
    >
      <style type="text/css">
        .cog {
          fill: #fff;
        }
        .letters {
          fill: #fff;
        }
        .letter-c {
        }
        .letter-s {
        }
      </style>
      <g class="cog">
        <animateTransform
          attributeType="xml"
          attributeName="transform"
          type="rotate"
          from="360 960 960"
          to="1080 960 960"
          dur="25s"
          repeatCount="indefinite"
        />
        <path
          d="M1790.44,480c-10.27-17.6-27.5-17.23-44.37-11.73c-23.1,7.33-46.2,15.03-68.57,24.2
		c-38.5,15.77-58.3-6.6-79.2-33.37c-20.17-26.4-17.6-48.04,2.2-73.34c18.33-23.47,38.5-47.67,38.87-80.3
		c0.37-29.33-13.2-40.33-39.6-26.77c-21.27,11-39.97,27.5-60.87,39.6c-24.2,13.93-47.3,32.63-78.1,7.33
		c-33.37-27.5-48.03-56.84-28.6-98.27c9.17-19.07,16.5-38.87,22.73-59.04c4.77-13.57,0-28.6-12.1-36.3
		c-14.67-9.53-29.7-5.5-41.43,6.23c-17.23,17.23-33,35.2-48.03,54.27c-23.1,29.7-49.87,33.73-84.7,22
		c-36.3-12.1-44-37.77-42.17-70.77c1.1-21.27,2.93-42.17,4.03-63.44c1.1-17.6-1.47-34.47-20.9-40.7
		c-18.33-5.87-33.37,4.03-42.17,18.7c-14.67,24.57-26.77,50.6-39.23,76.64c-7.7,16.87-19.43,26.03-38.13,26.77
		c-55,1.83-77-15.4-88.37-70.04c-3.67-17.97-6.97-35.57-11.37-53.17c-4.03-15.03-12.1-31.9-28.23-32.27
		c-19.43-0.73-26.4,17.97-30.43,34.1c-6.23,24.93-11,50.24-16.87,75.17c-10.27,42.9-47.3,42.17-79.94,45.47
		c-29.33,3.3-41.8-17.23-50.97-42.17c-8.43-22.73-19.07-44.37-32.27-64.54c-8.07-13.93-24.57-19.8-39.6-14.67
		c-16.87,6.23-21.27,20.17-20.17,36.67c1.47,22.73,4.03,45.47,4.77,68.2c0.73,30.43-5.13,56.47-39.23,68.57
		c-33,11.73-61.6,12.83-85.44-17.97c-13.93-17.97-29.33-34.47-44.73-51.34c-12.1-13.2-26.77-22-44.37-13.93
		c-18.7,8.8-15.77,25.67-13.2,43.27c3.67,23.1,15.4,42.53,23.47,63.44c13.57,34.47,2.2,57.94-26.03,82.5
		c-28.23,24.57-51.34,19.8-77.37,3.3c-20.53-12.83-39.97-27.5-60.14-40.7c-13.2-8.43-28.6-15.03-42.17-3.3
		c-13.2,11-9.9,27.5-5.87,42.53c6.6,26.03,26.03,44.37,41.07,64.54c19.07,25.67,21.27,46.93,1.47,73.7
		c-20.9,27.87-41.43,48.04-79.2,33c-23.83-9.53-48.4-17.6-72.97-24.93c-15.4-4.4-30.8-2.2-39.97,12.83
		c-9.53,15.77-2.93,30.43,8.43,41.07c15.4,14.3,32.27,27.5,49.5,39.23l1.1,0.73c89.84-2.93,180.04-5.5,269.88-7.33
		C515.5,483.3,582.6,426.1,667.31,387.6c8.07-4.03,16.5-6.97,24.93-8.8c10.27-2.2,20.9-2.57,30.8-4.03
		c39.97,0.73,78.47,15.03,108.9,41.07c83.24,67.84,175.27,68.2,256.68,2.2c64.54-52.44,141.54-56.84,210.47-11.37
		c61.6,40.33,116.6,90.2,163.17,147.77c89.1,2.2,178.57,4.77,267.68,7.7c16.87-11.73,33.37-24.2,49.14-37.4
		C1791.91,513.01,1800.34,497.24,1790.44,480z M962.85,393.47c-46.93,0.73-80.3-31.53-80.3-78.47
		c-0.37-44.73,34.83-83.24,77.37-84.7c41.8-1.47,78.84,36.3,79.94,81.4C1040.95,359.73,1009.78,392.74,962.85,393.47z"
        />
        <path
          d="M481.09,130.63c-17.6,10.27-17.23,27.5-11.73,44.37c7.33,23.1,15.03,46.2,24.2,68.57
		c15.77,38.5-6.6,58.3-33.37,79.2c-26.4,20.17-48.03,17.6-73.34-2.2c-23.47-18.33-47.67-38.5-80.3-38.87
		c-29.33-0.37-40.33,13.2-26.77,39.6c11,21.27,27.5,39.97,39.6,60.87c13.93,24.2,32.63,47.3,7.33,78.1
		c-27.5,33.37-56.84,48.03-98.27,28.6c-19.07-9.17-38.87-16.5-59.04-22.73c-13.57-4.77-28.6,0-36.3,12.1
		c-9.53,14.67-5.5,29.7,6.23,41.43c17.23,17.23,35.2,33,54.27,48.03c29.7,23.1,33.73,49.87,22,84.7c-12.1,36.3-37.77,44-70.77,42.17
		c-21.27-1.1-42.17-2.93-63.44-4.03c-17.6-1.1-34.47,1.47-40.7,20.9c-5.87,18.33,4.03,33.37,18.7,42.17
		c24.57,14.67,50.6,26.77,76.64,39.23c16.87,7.7,26.03,19.43,26.77,38.13c1.83,55-15.4,77-70.04,88.37
		c-17.97,3.67-35.57,6.97-53.17,11.37c-15.03,4.03-31.9,12.1-32.27,28.23c-0.73,19.43,17.97,26.4,34.1,30.43
		c24.93,6.23,50.24,11,75.17,16.87c42.9,10.27,42.17,47.3,45.47,79.94c3.3,29.33-17.23,41.8-42.17,50.97
		c-22.73,8.43-44.37,19.07-64.54,32.27c-13.93,8.07-19.8,24.57-14.67,39.6c6.23,16.87,20.17,21.27,36.67,20.17
		c22.73-1.47,45.47-4.03,68.2-4.77c30.43-0.73,56.47,5.13,68.57,39.23c11.73,33,12.83,61.6-17.97,85.44
		c-17.97,13.93-34.47,29.33-51.34,44.73c-13.2,12.1-22,26.77-13.93,44.37c8.8,18.7,25.67,15.77,43.27,13.2
		c23.1-3.67,42.53-15.4,63.44-23.47c34.47-13.57,57.94-2.2,82.5,26.03c24.57,28.23,19.8,51.34,3.3,77.37
		c-12.83,20.53-27.5,39.97-40.7,60.14c-8.43,13.2-15.03,28.6-3.3,42.17c11,13.2,27.5,9.9,42.53,5.87
		c26.03-6.6,44.37-26.03,64.54-41.07c25.67-19.07,46.93-21.27,73.7-1.47c27.87,20.9,48.03,41.43,33,79.2
		c-9.53,23.83-17.6,48.4-24.93,72.97c-4.4,15.4-2.2,30.8,12.83,39.97c15.77,9.53,30.43,2.93,41.07-8.43
		c14.3-15.4,27.5-32.27,39.23-49.5l0.73-1.1c-2.93-89.84-5.5-180.04-7.33-269.88c-70.4-54.64-127.6-121.74-166.11-206.44
		c-4.03-8.07-6.97-16.5-8.8-24.93c-2.2-10.27-2.57-20.9-4.03-30.8c0.73-39.97,15.03-78.47,41.07-108.9
		c67.84-83.24,68.2-175.27,2.2-256.68c-52.44-64.54-56.84-141.54-11.37-210.47c40.33-61.6,90.2-116.6,147.77-163.17
		c2.2-89.1,4.77-178.57,7.7-267.68c-11.73-16.87-24.2-33.37-37.4-49.14C514.09,129.17,498.32,120.73,481.09,130.63z M394.55,958.23
		c0.73,46.93-31.53,80.3-78.47,80.3c-44.73,0.37-83.24-34.83-84.7-77.37c-1.47-41.8,36.3-78.84,81.4-79.94
		C360.82,880.13,393.82,911.29,394.55,958.23z"
        />
        <path
          d="M131.72,1439.99c10.27,17.6,27.5,17.23,44.37,11.73c23.1-7.33,46.2-15.03,68.57-24.2
      c38.5-15.77,58.3,6.6,79.2,33.37c20.17,26.4,17.6,48.03-2.2,73.34c-18.33,23.47-38.5,47.67-38.87,80.3
      c-0.37,29.33,13.2,40.33,39.6,26.77c21.27-11,39.97-27.5,60.87-39.6c24.2-13.93,47.3-32.63,78.1-7.33
      c33.37,27.5,48.03,56.84,28.6,98.27c-9.17,19.07-16.5,38.87-22.73,59.04c-4.77,13.57,0,28.6,12.1,36.3
      c14.67,9.53,29.7,5.5,41.43-6.23c17.23-17.23,33-35.2,48.03-54.27c23.1-29.7,49.87-33.73,84.7-22c36.3,12.1,44,37.77,42.17,70.77
      c-1.1,21.27-2.93,42.17-4.03,63.44c-1.1,17.6,1.47,34.47,20.9,40.7c18.33,5.87,33.37-4.03,42.17-18.7
      c14.67-24.57,26.77-50.6,39.23-76.64c7.7-16.87,19.43-26.03,38.13-26.77c55-1.83,77,15.4,88.37,70.04
      c3.67,17.97,6.97,35.57,11.37,53.17c4.03,15.03,12.1,31.9,28.23,32.27c19.43,0.73,26.4-17.97,30.43-34.1
      c6.23-24.93,11-50.23,16.87-75.17c10.27-42.9,47.3-42.17,79.94-45.47c29.33-3.3,41.8,17.23,50.97,42.17
      c8.43,22.73,19.07,44.37,32.27,64.54c8.07,13.93,24.57,19.8,39.6,14.67c16.87-6.23,21.27-20.17,20.17-36.67
      c-1.47-22.73-4.03-45.47-4.77-68.2c-0.73-30.43,5.13-56.47,39.23-68.57c33-11.73,61.6-12.83,85.44,17.97
      c13.93,17.97,29.33,34.47,44.73,51.34c12.1,13.2,26.77,22,44.37,13.93c18.7-8.8,15.77-25.67,13.2-43.27
      c-3.67-23.1-15.4-42.53-23.47-63.44c-13.57-34.47-2.2-57.94,26.03-82.5c28.23-24.57,51.34-19.8,77.37-3.3
      c20.53,12.83,39.97,27.5,60.14,40.7c13.2,8.43,28.6,15.03,42.17,3.3c13.2-11,9.9-27.5,5.87-42.53
      c-6.6-26.03-26.03-44.37-41.07-64.54c-19.07-25.67-21.27-46.93-1.47-73.7c20.9-27.87,41.43-48.03,79.2-33
      c23.83,9.53,48.4,17.6,72.97,24.93c15.4,4.4,30.8,2.2,39.97-12.83c9.53-15.77,2.93-30.43-8.43-41.07
      c-15.4-14.3-32.27-27.5-49.5-39.23l-1.1-0.73c-89.84,2.93-180.04,5.5-269.88,7.33c-54.64,70.4-121.74,127.6-206.44,166.11
      c-8.07,4.03-16.5,6.97-24.93,8.8c-10.27,2.2-20.9,2.57-30.8,4.03c-39.97-0.73-78.47-15.03-108.9-41.07
      c-83.24-67.84-175.27-68.2-256.68-2.2c-64.54,52.44-141.54,56.84-210.47,11.37c-61.6-40.33-116.6-90.2-163.17-147.77
      c-89.1-2.2-178.57-4.77-267.68-7.7c-16.87,11.73-33.37,24.2-49.14,37.4C130.25,1406.99,121.82,1422.76,131.72,1439.99z
       M959.31,1526.53c46.93-0.73,80.3,31.53,80.3,78.47c0.37,44.73-34.83,83.24-77.37,84.7c-41.8,1.47-78.84-36.3-79.94-81.4
      C881.21,1560.26,912.38,1527.26,959.31,1526.53z"
        />
        <path
          d="M1439.55,1789.36c17.6-10.27,17.23-27.5,11.73-44.37c-7.33-23.1-15.03-46.2-24.2-68.57
    c-15.77-38.5,6.6-58.3,33.37-79.2c26.4-20.17,48.04-17.6,73.34,2.2c23.47,18.33,47.67,38.5,80.3,38.87
    c29.33,0.37,40.33-13.2,26.77-39.6c-11-21.27-27.5-39.97-39.6-60.87c-13.93-24.2-32.63-47.3-7.33-78.1
    c27.5-33.37,56.84-48.03,98.27-28.6c19.07,9.17,38.87,16.5,59.04,22.73c13.57,4.77,28.6,0,36.3-12.1
    c9.53-14.67,5.5-29.7-6.23-41.43c-17.23-17.23-35.2-33-54.27-48.03c-29.7-23.1-33.73-49.87-22-84.7c12.1-36.3,37.77-44,70.77-42.17
    c21.27,1.1,42.17,2.93,63.44,4.03c17.6,1.1,34.47-1.47,40.7-20.9c5.87-18.33-4.03-33.37-18.7-42.17
    c-24.57-14.67-50.6-26.77-76.64-39.23c-16.87-7.7-26.03-19.43-26.77-38.13c-1.83-55,15.4-77,70.04-88.37
    c17.97-3.67,35.57-6.97,53.17-11.37c15.03-4.03,31.9-12.1,32.27-28.23c0.73-19.43-17.97-26.4-34.1-30.43
    c-24.93-6.23-50.24-11-75.17-16.87c-42.9-10.27-42.17-47.3-45.47-79.94c-3.3-29.33,17.23-41.8,42.17-50.97
    c22.73-8.43,44.37-19.07,64.54-32.27c13.93-8.07,19.8-24.57,14.67-39.6c-6.23-16.87-20.17-21.27-36.67-20.17
    c-22.73,1.47-45.47,4.03-68.2,4.77c-30.43,0.73-56.47-5.13-68.57-39.23c-11.73-33-12.83-61.6,17.97-85.44
    c17.97-13.93,34.47-29.33,51.34-44.73c13.2-12.1,22-26.77,13.93-44.37c-8.8-18.7-25.67-15.77-43.27-13.2
    c-23.1,3.67-42.53,15.4-63.44,23.47c-34.47,13.57-57.94,2.2-82.5-26.03s-19.8-51.34-3.3-77.37c12.83-20.53,27.5-39.97,40.7-60.14
    c8.43-13.2,15.03-28.6,3.3-42.17c-11-13.2-27.5-9.9-42.53-5.87c-26.03,6.6-44.37,26.03-64.54,41.07
    c-25.67,19.07-46.93,21.27-73.7,1.47c-27.87-20.9-48.04-41.43-33-79.2c9.53-23.83,17.6-48.4,24.93-72.97
    c4.4-15.4,2.2-30.8-12.83-39.97c-15.77-9.53-30.43-2.93-41.07,8.43c-14.3,15.4-27.5,32.27-39.23,49.5l-0.73,1.1
    c2.93,89.84,5.5,180.04,7.33,269.88c70.4,54.64,127.6,121.74,166.11,206.44c4.03,8.07,6.97,16.5,8.8,24.93
    c2.2,10.27,2.57,20.9,4.03,30.8c-0.73,39.97-15.03,78.47-41.07,108.9c-67.84,83.24-68.2,175.27-2.2,256.68
    c52.44,64.54,56.84,141.54,11.37,210.47c-40.33,61.6-90.2,116.6-147.77,163.17c-2.2,89.1-4.77,178.57-7.7,267.68
    c11.73,16.87,24.2,33.37,37.4,49.14C1406.55,1790.83,1422.31,1799.26,1439.55,1789.36z M1526.08,961.77
    c-0.73-46.93,31.53-80.3,78.47-80.3c44.73-0.37,83.24,34.83,84.7,77.37c1.47,41.8-36.3,78.84-81.4,79.94
    C1559.82,1039.87,1526.82,1008.7,1526.08,961.77z"
        />
      </g>
      <g class="letters">
        <path
          class="letter-c"
          d="M1038.24,716.9c-31.85-4.76-65.26-7.4-97.89-6.87c-184.91,3.7-219.87,121.05-219.87,195.06
		c0,72.95,34.96,197.17,219.87,200.87c31.85,1.59,64.49-2.11,94.79-9.52c11.65,32.25,22.53,65.02,34.19,97.27
		c-40.4,12.69-95.56,13.22-141.4,11.63c-297.57-9.52-420.32-170.21-423.43-306.07c-3.11-128.45,114.21-281.22,395.46-288.62
		c51.28-1.59,108.77-1.06,158.5,9.52C1051.45,652.41,1044.45,684.66,1038.24,716.9z"
        />
        <path
          class="letter-s"
          d="M912.82,1230.25c54.24,14.12,113.13,21.87,172.79,22.32c80.58,1.37,143.34-27.79,143.34-64.69
      c0-41.46-67.41-70.61-135.6-93.39c-113.9-36.45-196.81-95.21-197.58-159.45c-1.55-89.75,123.2-168.56,330.86-168.1
      c56.56-0.46,113.13,6.38,165.04,20.5c-10.85,31.89-21.7,63.78-32.54,95.67c-39.52-14.58-86.01-17.77-134.05-19.59
      c-73.61-3.19-127.07,27.33-129.4,59.22c-2.32,42.37,79.81,66.51,144.89,89.29c112.35,39.63,190.61,95.67,189.84,163.55
      c-1.55,92.48-141.8,176.76-347.13,173.57c-67.41-1.37-139.47-5.47-200.68-23.23L912.82,1230.25z"
        />
      </g>
    </svg>
