<?xml version="1.0" encoding="utf-8"?>
<svg version="1.1" 
	style="transform:rotate(-45deg)"
	xmlns="http://www.w3.org/2000/svg" 
	xmlns:xlink="http://www.w3.org/1999/xlink" x="0px" y="0px" class="center-block" viewBox="0 0 1024 570" xml:space="preserve">
	<style type="text/css">
	.container {
		opacity: 0.2;
	}
    .gears {
        fill: #000;
    }
	.frame {
        fill: #000;
    }
	.letters {
        fill: #000;
    }	
	</style>
	<g class="container">
		<g>
			<path class="frame" d="M988,198.6c-63.8-5.1-127.6-9.2-191.5-12.3c-11.7-33.6-69.9-78.3-69.9-78.3c19.2,23.2,34.3,49.3,45,77.1
			c-48.6-2.1-97.2-3.7-145.8-4.6c1.1,0,2.2,0,3.3,0.1c-13.7-15.2-47.2-30.1-47.2-30.1c14,7.9,26.5,17.9,37.1,29.9
			c-71.4-1.3-142.9-1.3-214.3,0c10.6-11.9,23.3-22.1,37.1-29.9c0,0-30.1,14.5-46.4,30c-47.8,0.9-95.5,2.5-143.2,4.6c0,0,0,0,0,0
			c10.7-27.8,25.8-53.9,45-77.1c0,0-58.2,44.6-69.9,78.3c-63.9,3.1-127.7,7.2-191.5,12.3v172.9c63.8,5.1,127.6,9.2,191.5,12.3
			c11.9,34.2,71,79.5,71,79.5c-19.7-23.5-35.2-50.1-46.1-78.4c48.5,2.1,97,3.6,145.5,4.6c17,14.8,42.3,27.8,42.3,27.8
			c-12.7-7.4-24.3-16.8-34.2-27.7c72.3,1.3,144.6,1.3,216.9-0.1c-1.3,0-2.6,0-3.9,0.1c-10.1,11.3-22.1,21.1-35.2,28.7
			c0,0,28.9-14,44.5-28.8c47.8-0.9,95.6-2.5,143.3-4.6c-10.9,28.3-26.4,54.8-46.1,78.4c0,0,59.2-45.3,71-79.5c0,0,0,0,0,0
			c63.9-3.1,127.8-7.2,191.6-12.3V198.6z M946.5,348.8c-289.4,18.8-579.7,18.8-869.1,0V221.4c289.4-18.8,579.7-18.8,869.1,0V348.8z" />
		</g>
		<g>
			<path class="gears" d="M734.7,403.5c-4.2-3.1-8.2-6.4-12.1-10c-24.5,0.9-49,1.6-73.6,2.1c-14,16.7-31.3,30.1-49.3,42.7
			c-15.1,10.6-34.6,9.3-48.9-4c-24.5-22.7-50.2-22.3-75.4-0.8c-17,14.5-32.6,16.1-50.7,3.5c-17.5-12.2-34.2-25.1-47.7-41.2
			c-25.1-0.5-50.2-1.2-75.3-2.1c-1.3,1.1-2.6,2.2-3.9,3.4c-2.4,2.2-5.1,4.3-7.5,6.5c-3,2.8-6.8,5.7-3.7,10.4c2.4,3.6,7,5.1,11,3.6
			c6.3-1.9,12.5-4.4,18.7-6.6c8.2-2.9,14.7-2,20.7,5.7c6.1,7.8,8.2,15.2,2.5,23.6c-3.5,5.1-7.7,9.7-10.9,15
			c-2.4,3.9-3.5,8.8-0.2,12.8c3.8,4.6,8.4,2.1,12.3-0.1c4.6-2.7,8.8-6.1,13.3-9c7.7-4.9,15-7.3,23.9-1c9.2,6.4,10.7,14,7.1,23.6
			c-2,5.4-4,10.9-6.1,16.3c-1.7,4.4-1.2,8.3,2.6,11.1c4.1,3.1,8.1,1.2,11.3-1.6c5.3-4.6,10.4-9.5,15.1-14.7c6.6-7.2,13.2-7.6,22-3.5
			c8.7,4,11.3,10.1,10.7,18.7c-0.4,6.2-1.1,12.4-1.2,18.5c-0.1,4.8,1.5,9.4,6.8,10.5c4.6,0.9,8-2,9.9-5.9c3.2-6.7,6.4-13.4,9-20.3
			c2.3-6.2,6.3-9.5,12.9-9.7c15.4-0.4,20.7,3.8,23.8,19.3c1.1,5.3,1.6,10.6,3,15.8c1.1,4.3,2.5,9.2,8.5,8.9c5.3-0.2,6.4-4.8,7.5-8.7
			c2.2-8.4,3.5-17,5.9-25.3c3.1-10.5,13.1-8.5,20.8-10c6.5-1.2,9.3,3.5,11.6,8.8c3.4,7.5,7.3,14.8,11.2,22.1c1.9,3.5,5.2,5.8,9.2,5
			c4.6-1,6.8-4.7,6.7-9.2c-0.1-6.6-0.6-13.2-1-19.8c-0.6-8.7,2.1-14.6,10.7-18.7c8.9-4.2,15.4-3.5,22,3.6
			c5.1,5.4,10.5,10.5,16.2,15.3c3,2.6,6.8,3.4,10.3,0.8c3.2-2.2,4.4-6.4,2.9-10c-1.9-5.5-3.8-10.9-6.2-16.2
			c-4.3-9.5-3-16.6,5.5-23.9c9-7.7,16.9-4.3,25.1-0.5c3.6,1.6,6.4,5.2,9.8,7.4c4.3,2.8,9.5,8,14.2,3c4.8-5.1,2.6-11.8-1.7-16.9
			c-3.7-4.4-7-9.2-9.7-14.3c-5-9.2-0.1-15.4,5.1-22.2c5.1-6.7,10.9-8.3,18.4-5.3c6.1,2.4,12.3,4.8,18.5,7.1
			c5.1,1.9,10.2,1.6,13.1-3.5C741.9,408.8,738.1,406.1,734.7,403.5z M513.5,482.1c-11.1,0.5-22.2-10.8-22.1-22.3
			c0.1-10.1,10.5-20.6,20.9-21c10.6-0.4,22,10.4,22.1,21C534.5,471,524.4,481.7,513.5,482.1z" />
		</g>
		<g>
			<path class="gears" d="M739,154.4c-2.8-4.8-7.5-4.7-12.1-3.2c-6.3,2-12.6,4.1-18.7,6.6c-10.5,4.3-15.9-1.8-21.6-9.1
			c-5.5-7.2-4.8-13.1,0.6-20c5-6.4,10.5-13,10.6-21.9c0.1-8-3.6-11-10.8-7.3c-5.8,3-10.9,7.5-16.6,10.8c-6.6,3.8-12.9,8.9-21.3,2
			c-9.1-7.5-13.1-15.5-7.8-26.8c2.5-5.2,4.5-10.6,6.2-16.1c1.3-3.7,0-7.8-3.3-9.9c-4-2.6-8.1-1.5-11.3,1.7c-4.7,4.7-9,9.6-13.1,14.8
			c-6.3,8.1-13.6,9.2-23.1,6c-9.9-3.3-12-10.3-11.5-19.3c0.3-5.8,0.8-11.5,1.1-17.3c0.3-4.8-0.4-9.4-5.7-11.1
			c-5-1.6-9.1,1.1-11.5,5.1c-4,6.7-7.3,13.8-10.7,20.9c-2.1,4.6-5.3,7.1-10.4,7.3c-15,0.5-21-4.2-24.1-19.1c-1-4.9-1.9-9.7-3.1-14.5
			c-1.1-4.1-3.3-8.7-7.7-8.8c-5.3-0.2-7.2,4.9-8.3,9.3c-1.7,6.8-3,13.7-4.6,20.5c-2.8,11.7-12.9,11.5-21.8,12.4
			c-8,0.9-11.4-4.7-13.9-11.5c-2.3-6.2-5.2-12.1-8.8-17.6c-2.2-3.8-6.7-5.4-10.8-4c-4.6,1.7-5.8,5.5-5.5,10
			c0.4,6.2,1.1,12.4,1.3,18.6c0.2,8.3-1.4,15.4-10.7,18.7c-9,3.2-16.8,3.5-23.3-4.9c-3.8-4.9-8-9.4-12.2-14c-3.3-3.6-7.3-6-12.1-3.8
			c-5.1,2.4-4.3,7-3.6,11.8c1,6.3,4.2,11.6,6.4,17.3c3.7,9.4,0.6,15.8-7.1,22.5c-7.7,6.7-14,5.4-21.1,0.9
			c-5.6-3.5-10.9-7.5-16.4-11.1c-3.6-2.3-7.8-4.1-11.5-0.9c-3.6,3-2.7,7.5-1.6,11.6c1.8,7.1,7.1,12.1,11.2,17.6
			c5.2,7,5.8,12.8,0.4,20.1c-5.7,7.6-11.3,13.1-21.6,9c-6.5-2.6-13.2-4.8-19.9-6.8c-4.2-1.2-8.4-0.6-10.9,3.5
			c-2.6,4.3-0.8,8.3,2.3,11.2c4.2,3.9,8.8,7.5,13.5,10.7l0.3,0.2c24.5-0.8,49.1-1.5,73.6-2c14.9-19.2,33.2-34.8,56.3-45.3
			c2.2-1.1,4.5-1.9,6.8-2.4c2.8-0.6,5.7-0.7,8.4-1.1c10.9,0.2,21.4,4.1,29.7,11.2c22.7,18.5,47.8,18.6,70,0.6
			c17.6-14.3,38.6-15.5,57.4-3.1c16.8,11,31.8,24.6,44.5,40.3c24.3,0.6,48.7,1.3,73,2.1c4.6-3.2,9.1-6.6,13.4-10.2
			C739.4,163.4,741.7,159.1,739,154.4z M513.3,130.8c-12.8,0.2-21.9-8.6-21.9-21.4c-0.1-12.2,9.5-22.7,21.1-23.1
			c11.4-0.4,21.5,9.9,21.8,22.2C534.6,121.6,526.1,130.6,513.3,130.8z" />
		</g>
		<g>
			<path class="letters" d="M174,339.4c-6.4,2-13.8,2.1-20.4,1.8c-36.2-1.4-51.3-30.3-50.9-54.6c0.4-25.7,16.2-56.1,54.5-57.9
			c5.9-0.3,13-0.2,18.2,2.2c-1.5,6.1-2.9,12.3-4.4,18.4c-3.9-1.4-8.1-2.1-12.2-1.8c-23.8,0.7-28.3,24.2-28.3,38
			c0,14,4.5,36.2,28.3,36.9c4.2,0.1,8.5-0.4,12.6-1.3C172.2,327.2,173.1,333.3,174,339.4z" />
		</g>
		<g>
			<path class="letters" d="M214.1,227.4v115.2c-9.2-0.3-16.9-0.6-26.1-1V228.4C197.2,228.1,204.9,227.7,214.1,227.4z" />
		</g>
		<g>
			<path class="letters" d="M237.1,226.6c7.7-0.3,16.9-0.5,26.1-0.8v51.5h1.5c2.3-3.1,4.5-9.4,6.6-14.5c6.1-12.8,12.1-25.3,18.1-38.1
			c9.6-0.2,19.3-0.3,28.9-0.5c-10,17.6-20.1,35.3-30.3,52.9c10.3,22.8,20.6,45.6,30.7,68.4c-9.6-0.2-19.1-0.4-28.7-0.7
			c-6.5-16.6-13.6-33.1-20.2-49.7c-2,3.4-4.2,6.6-6.6,9.6v39.3c-9.2-0.3-18.4-0.5-26.1-0.8L237.1,226.6L237.1,226.6z" />
		</g>
		<g>
			<path class="letters" d="M329.3,224.2c9.2-0.2,16.9-0.4,27.6-0.5v102.5c9.2,0.1,23,0.3,33.8,0.4v20.4c-20-0.3-41.5-0.7-61.4-1.1V224.2
			z" />
		</g>
		<g>
			<path class="letters" d="M480.9,282.8c-0.3,22.1-3.6,66.7-43.8,66.2c-37.8-0.5-42.8-42.5-42.7-64.3c0-22,7.4-63.3,44.6-63.6
			C475.6,220.7,481.2,261.5,480.9,282.8z M421.7,285c0,8.5-1.2,43.1,16.5,42.8c17-0.3,15.3-35.5,15.3-43.9c0-8.5,1-41.4-15.5-41.7
			C421,241.9,421.7,276.5,421.7,285z" />
		</g>
		<g>
			<path class="letters" d="M494.6,322.8c7,3.1,14.6,4.8,22.3,4.9c10.4,0.3,18.5-6.1,18.5-14.2c0-9.1-8.7-15.5-17.5-20.5
			c-14.7-8-25.4-20.9-25.5-35c-0.2-19.7,15.9-37,42.7-36.9c7.3-0.1,14.6,1.4,21.3,4.5c-1.4,7-2.8,14-4.2,21
			c-5.1-3.2-11.1-3.9-17.3-4.3c-9.5-0.7-16.4,6-16.7,13c-0.3,9.3,10.3,14.6,18.7,19.6c14.5,8.7,24.6,21,24.5,35.9
			c-0.2,20.3-18.3,38.8-44.8,38.1c-8.7-0.3-18-1.2-25.9-5.1L494.6,322.8z" />
		</g>
		<g>
			<path class="letters" d="M576.5,224.3c7.7-1.7,18.4-2.1,27.6-2.2c13.1,0,27.4,2.3,36.8,10c8.3,6.9,11.9,18.1,11.7,27.2
			c-0.3,10.5-2.7,21.2-11.4,29.6c-7.6,7.3-21,11.9-33.1,11.9c-1.8,0-3.8,0-5.4,0v46.4c-10.7,0.1-20,0.2-26.1,0.2V224.3z
			 M602.6,281.1c1.4,0.3,2.9,0.4,4.4,0.4c14.1,0.1,19.3-11,19.3-20.2c0-8.3-4-19.5-17.2-19.5c-2.2,0-4.4,0.3-6.6,0.9L602.6,281.1
			L602.6,281.1z" />
		</g>
		<g>
			<path class="letters" d="M748.2,282.9c-0.3,22.6-4.7,63.4-43.7,64.2c-37.8,0.7-43-41.2-42.7-62.5c0.2-20.5,7-63.1,44.5-61.7
			C742,224.4,748.5,261.3,748.2,282.9z M689,285c0,8.3-1.2,42.2,16.5,41.6c16.9-0.7,15.3-34.1,15.2-42.6c0-8.7,0.7-40.1-15.4-40.5
			C688.6,243,689,276.6,689,285z" />
		</g>
		<g>
			<path class="letters" d="M763.8,227.7c9.7-1.2,19.4-1.7,29.2-1.4c12.6,0.4,26.7,2.3,36.4,9.7c8,6.1,10.6,15.3,10.6,23.8
			c-0.1,11.6-7.1,23-20.9,28.4v0.3c10.7,3.6,14.8,14,16.6,22.3c2.1,9.9,3.8,21,8.7,30.5c-9.2,0.4-18.3,0.7-27.4,1
			c-3.8-8.7-4.9-18.4-6.6-27.3c-1.3-6.9-3.6-18.9-16-18.4c-1.5,0-1.3,0-4.4,0v46.5c-9.2,0.3-16.9,0.6-26.1,0.8L763.8,227.7
			L763.8,227.7z M789.9,279.3c3.1,0,3.4,0,5.2,0c12.1,0.6,18.3-10,18.3-17.9c0-7.7-5.2-17.3-16.9-17.5c-2.2-0.1-4.5,0.1-6.7,0.5
			L789.9,279.3L789.9,279.3z" />
		</g>
		<g>
			<path class="letters" d="M872.8,249.6c-7.7-0.2-16.9-0.4-24.6-0.6v-20.2c24.6,1,49.1,2.1,73.7,3.2v19c-6.1-0.2-15.4-0.5-23-0.7v88.7
			c-7.7,0.4-16.9,0.8-26.1,1.1V249.6L872.8,249.6z" />
		</g>
	</g>
</svg>