<?xml version="1.0" standalone="no"?>
<!DOCTYPE svg PUBLIC "-//W3C//DTD SVG 20010904//EN"
 "http://www.w3.org/TR/2001/REC-SVG-20010904/DTD/svg10.dtd">
<svg version="1.0" xmlns="http://www.w3.org/2000/svg"
 width="700.000000pt" height="700.000000pt" viewBox="0 0 700.000000 700.000000"
 preserveAspectRatio="xMidYMid meet">
<metadata>
Created by potrace 1.14, written by Peter Selinger 2001-2017
</metadata>
<g transform="translate(0.000000,700.000000) scale(0.100000,-0.100000)"
fill="#000000" stroke="none">
<path d="M3248 6775 c-1 -2 -32 -6 -68 -9 -129 -12 -277 -36 -390 -62 -36 -9
-72 -17 -80 -19 -44 -9 -117 -30 -215 -62 -771 -248 -1417 -768 -1834 -1476
-61 -104 -128 -236 -166 -327 -15 -36 -33 -78 -40 -95 -18 -42 -61 -161 -80
-220 -8 -27 -19 -63 -25 -80 -13 -44 -48 -185 -55 -224 -3 -19 -7 -37 -9 -40
-2 -3 -7 -24 -10 -46 -4 -22 -11 -65 -16 -95 -5 -30 -12 -80 -16 -110 -3 -30
-9 -84 -14 -120 -8 -68 -6 -590 3 -626 3 -12 8 -45 12 -75 71 -605 333 -1207
736 -1691 328 -394 737 -698 1239 -921 259 -115 649 -213 970 -245 156 -15
581 -8 728 13 18 2 52 7 75 10 443 61 937 253 1332 518 662 445 1143 1117
1345 1881 18 65 34 130 36 145 3 14 7 33 9 41 2 8 7 31 10 50 3 19 10 58 15
85 5 28 12 79 16 115 3 36 8 74 11 85 9 35 11 537 3 615 -28 257 -71 475 -136
685 -13 44 -27 87 -31 95 -3 8 -7 17 -7 20 -2 6 -21 59 -53 140 -44 110 -139
306 -199 408 -54 92 -179 284 -209 320 -8 9 -35 44 -61 77 -503 636 -1222
1062 -2023 1200 -52 9 -115 18 -140 21 -25 2 -57 7 -71 10 -26 7 -586 15 -592
9z"/>
</g>
</svg>
