<?xml version="1.0" standalone="no"?>
<!DOCTYPE svg PUBLIC "-//W3C//DTD SVG 20010904//EN"
 "http://www.w3.org/TR/2001/REC-SVG-20010904/DTD/svg10.dtd">
<svg version="1.0" xmlns="http://www.w3.org/2000/svg"
 width="1024.000000pt" height="1024.000000pt" viewBox="0 0 1024.000000 1024.000000"
 preserveAspectRatio="xMidYMid meet">
<metadata>
Created by potrace 1.14, written by Peter Selinger 2001-2017
</metadata>
<g transform="translate(0.000000,1024.000000) scale(0.100000,-0.100000)"
fill="#000000" stroke="none">
<path d="M5088 7700 c-23 -17 -38 -57 -54 -135 -2 -11 -6 -29 -9 -40 -35 -149
-37 -155 -66 -179 -17 -14 -47 -30 -68 -36 -55 -15 -153 -16 -178 -2 -13 7
-40 49 -64 100 -22 48 -45 96 -52 107 -6 11 -17 32 -24 47 -20 40 -61 68 -97
68 -59 -1 -85 -41 -80 -125 2 -27 5 -85 8 -127 2 -42 0 -95 -6 -117 -18 -72
-82 -115 -187 -126 -52 -5 -112 26 -153 79 -18 22 -37 46 -43 52 -5 6 -24 26
-40 45 -70 79 -117 96 -163 61 -41 -32 -33 -132 20 -236 19 -36 22 -47 34
-106 8 -38 -23 -104 -69 -147 -52 -48 -71 -59 -119 -62 -42 -3 -72 11 -188 89
-142 95 -173 103 -208 52 -19 -26 -19 -34 -7 -98 6 -34 50 -106 102 -168 66
-80 67 -144 2 -226 -47 -60 -92 -90 -134 -90 -16 0 -87 20 -156 44 -69 24
-136 42 -150 42 -47 -3 -79 -33 -84 -81 -4 -32 59 -100 160 -173 11 -8 5 -8
365 3 140 4 285 8 323 8 37 1 67 4 67 7 0 14 164 188 216 230 69 56 146 111
189 135 28 16 52 32 55 35 3 3 39 21 80 40 63 28 88 34 157 37 125 4 192 -21
323 -117 156 -114 308 -152 456 -114 64 17 179 73 212 105 12 10 25 19 31 19
5 0 11 6 14 13 6 17 109 67 172 83 105 28 232 10 335 -48 131 -74 312 -228
453 -386 l38 -42 82 0 c81 -1 297 -6 529 -14 l118 -4 75 60 c74 58 95 87 95
131 -1 36 -36 69 -76 71 -29 2 -167 -38 -244 -71 -8 -3 -23 -8 -32 -9 -10 -2
-21 -5 -25 -6 -17 -4 -69 14 -88 30 -11 9 -38 39 -59 65 -30 36 -40 59 -44 95
-4 44 0 53 42 112 88 124 112 188 99 258 -6 38 -38 58 -75 49 -23 -6 -111 -60
-136 -84 -6 -6 -21 -15 -32 -18 -11 -3 -20 -11 -20 -16 0 -6 -4 -8 -9 -4 -5 3
-13 0 -16 -6 -12 -18 -95 -49 -120 -45 -57 11 -133 74 -156 131 -29 70 -24
104 31 235 47 112 49 143 12 180 -56 56 -97 35 -217 -106 -39 -45 -86 -91
-105 -101 -94 -50 -256 15 -274 110 -5 25 -2 153 6 247 6 72 -28 120 -84 120
-57 -1 -86 -37 -163 -200 -22 -47 -47 -92 -55 -101 -45 -48 -173 -46 -243 3
-37 26 -83 135 -92 216 -7 70 -44 152 -73 163 -32 12 -36 12 -64 -11z m132
-618 c92 -46 142 -162 116 -267 -12 -46 -55 -101 -99 -125 -75 -43 -194 -30
-261 29 -50 44 -79 171 -50 226 7 14 11 25 8 25 -6 0 27 51 41 65 77 74 159
90 245 47z"/>
<path d="M2860 6799 c-164 -139 -360 -336 -440 -444 -25 -33 -48 -61 -52 -63
-5 -2 -8 -8 -8 -14 0 -6 -10 -25 -23 -42 -13 -17 -32 -52 -43 -78 -10 -27 -23
-48 -29 -49 -29 -3 -244 -16 -425 -25 -84 -4 -200 -11 -335 -19 -49 -3 -124
-8 -165 -10 -41 -3 -104 -7 -140 -9 -36 -3 -110 -8 -165 -11 -55 -3 -120 -8
-145 -10 -50 -5 -187 -15 -265 -20 -27 -2 -88 -7 -135 -11 -47 -4 -95 -7 -107
-8 -19 0 -23 -6 -24 -30 -6 -207 0 -1689 7 -1696 5 -4 52 -11 104 -14 52 -4
118 -8 145 -10 28 -3 88 -7 135 -11 180 -13 207 -15 270 -20 36 -2 110 -7 165
-10 55 -3 125 -8 155 -10 30 -2 93 -6 140 -10 85 -6 228 -14 350 -20 149 -7
397 -21 441 -24 4 -1 10 -12 13 -26 26 -105 246 -373 471 -575 192 -172 230
-199 168 -119 -103 134 -205 294 -272 427 -56 110 -110 229 -117 258 l-6 25
148 -6 c82 -3 194 -7 249 -10 144 -6 453 -16 650 -21 94 -2 222 -5 285 -7
l115 -3 66 -49 c37 -28 77 -57 89 -65 12 -8 33 -23 45 -32 13 -10 26 -18 29
-18 3 0 30 -16 61 -35 30 -20 55 -34 55 -32 0 3 -33 29 -72 60 -59 44 -188
161 -188 170 0 1 37 1 83 -1 128 -4 1630 -6 1839 -2 103 2 190 2 193 -2 7 -7
-147 -153 -197 -186 -21 -13 -38 -28 -38 -33 0 -13 207 112 252 151 9 8 23 20
30 25 8 6 24 19 37 30 19 17 39 20 129 22 160 3 488 12 652 18 250 9 421 15
548 20 67 3 122 3 122 0 0 -22 -149 -338 -162 -343 -5 -2 -8 -8 -8 -13 0 -5
-26 -50 -57 -100 -32 -50 -62 -99 -68 -108 -17 -29 -88 -125 -112 -151 -27
-29 -31 -50 -5 -29 334 279 562 529 642 707 13 28 26 52 29 53 3 1 31 2 61 4
96 4 312 16 390 21 41 2 116 7 165 10 50 3 122 7 160 9 77 4 208 12 325 21 41
2 104 7 140 9 110 8 329 23 415 30 28 2 91 7 140 11 50 4 95 7 101 7 9 0 12
224 12 867 0 803 -1 866 -16 866 -9 0 -60 4 -112 8 -275 22 -500 38 -703 51
-32 2 -101 6 -155 10 -183 13 -427 27 -687 40 -223 11 -239 12 -244 26 -6 20
-70 139 -82 152 -5 7 -31 41 -58 77 -86 115 -279 313 -412 422 -23 18 -55 46
-72 61 -18 15 -41 32 -52 38 -17 9 -18 8 -5 -3 9 -7 29 -31 45 -53 17 -22 32
-42 35 -45 15 -15 110 -161 110 -169 0 -5 4 -11 9 -13 23 -8 231 -421 231
-458 0 -10 -35 -9 -390 5 -172 8 -526 18 -961 29 -60 1 -70 4 -106 36 -56 49
-71 61 -133 101 -119 77 -260 153 -260 139 0 -5 5 -10 11 -10 10 0 88 -51 115
-75 6 -5 28 -23 50 -40 72 -56 155 -145 136 -146 -9 0 -102 1 -207 2 -255 3
-1517 2 -1730 0 -93 -2 -174 -2 -179 -2 -8 1 93 103 145 146 19 16 101 75 128
92 2 2 2 5 -1 8 -2 3 -37 -15 -77 -40 -40 -25 -75 -45 -77 -45 -6 0 -122 -83
-163 -117 -56 -46 -61 -48 -191 -51 -322 -7 -681 -18 -910 -27 -74 -3 -190 -8
-257 -10 -69 -3 -123 -1 -123 4 0 11 24 70 56 139 62 134 78 167 84 172 3 3
14 21 23 40 21 41 22 43 114 185 40 61 81 119 90 130 21 22 66 85 61 84 -2 0
-46 -36 -98 -80z m3500 -913 c612 -14 688 -16 1135 -31 88 -3 205 -8 260 -11
123 -6 115 -6 145 -5 14 1 61 0 105 -3 44 -3 139 -8 210 -11 72 -3 166 -7 210
-10 158 -8 312 -16 400 -20 50 -3 122 -7 160 -9 39 -3 117 -8 175 -11 58 -4
129 -8 158 -9 29 -2 55 -6 58 -9 3 -3 19 -1 35 3 17 5 29 5 29 -1 0 -5 5 -8
12 -6 9 1 12 -142 13 -626 0 -346 -2 -633 -5 -638 -3 -5 -46 -11 -95 -14 -50
-3 -133 -7 -185 -10 -52 -3 -124 -8 -160 -10 -36 -2 -112 -6 -170 -10 -58 -3
-143 -7 -190 -10 -433 -24 -1265 -58 -1750 -70 -592 -15 -982 -19 -1805 -19
-852 0 -1192 4 -1750 19 -480 13 -608 17 -920 30 -60 3 -164 7 -230 10 -66 2
-163 6 -215 9 -52 3 -151 8 -220 11 -69 4 -154 8 -190 11 -36 2 -114 6 -175 9
-60 3 -144 7 -185 10 -88 6 -207 13 -338 20 -52 3 -97 7 -101 9 -3 2 -6 289
-6 637 0 624 0 632 20 636 11 2 67 6 125 9 159 8 385 21 530 30 41 2 116 7
165 9 50 2 135 7 190 10 180 9 318 15 429 20 60 2 111 7 114 9 2 3 12 1 22 -4
10 -5 20 -7 24 -3 3 3 43 7 88 9 46 1 162 5 258 8 524 18 749 24 1170 32 184
3 336 6 337 7 4 5 1885 -2 2113 -7z"/>
<path d="M4275 5742 c-60 -17 -142 -70 -179 -115 -58 -69 -118 -205 -132 -299
-2 -16 -7 -43 -10 -60 -3 -18 -6 -77 -8 -132 -8 -338 103 -571 304 -638 44
-15 198 -18 245 -5 86 24 182 107 227 198 62 125 81 232 82 449 0 170 -15 270
-55 365 -7 17 -13 32 -13 35 -1 3 -14 24 -29 47 -72 112 -163 164 -296 168
-53 1 -105 -4 -136 -13z m136 -202 c44 -12 83 -62 90 -115 1 -5 6 -21 11 -35
16 -42 21 -108 21 -275 1 -198 -8 -264 -45 -342 -48 -102 -153 -109 -211 -15
-44 72 -59 160 -59 355 0 249 31 372 105 417 37 23 40 23 88 10z"/>
<path d="M5258 5754 c-2 -1 -15 -5 -28 -7 -41 -8 -117 -39 -145 -59 -198 -143
-213 -387 -35 -552 33 -30 91 -74 128 -96 160 -96 210 -188 150 -276 -31 -45
-86 -68 -167 -69 -64 -1 -83 3 -166 31 -21 8 -42 11 -46 6 -7 -6 -17 -57 -35
-168 -4 -24 -1 -32 18 -41 29 -15 67 -26 93 -29 11 -1 40 -5 65 -9 60 -9 55
-9 132 -2 295 27 471 292 353 532 -28 59 -105 141 -174 185 -25 16 -50 33 -56
37 -5 5 -23 14 -38 22 -78 41 -133 114 -122 166 2 11 4 25 4 30 2 20 49 65 82
79 42 17 138 13 199 -8 25 -8 48 -12 51 -8 9 9 29 116 32 166 2 39 2 40 -48
54 -43 12 -239 25 -247 16z"/>
<path d="M5836 5739 c-26 -4 -53 -10 -60 -12 -16 -6 -15 -1215 2 -1226 9 -5
148 -7 233 -2 15 1 16 26 15 231 0 127 1 230 4 231 3 0 34 2 70 3 181 9 323
90 384 220 67 142 48 337 -43 433 -56 59 -148 104 -249 121 -62 11 -285 11
-356 1z m353 -216 c68 -50 93 -180 51 -263 -12 -24 -28 -49 -34 -56 -22 -22
-76 -44 -113 -48 -69 -6 -68 -9 -67 196 1 100 2 187 3 192 2 16 132 -1 160
-21z"/>
<path d="M3405 5730 l-110 -5 -1 -607 -1 -608 51 0 c28 -1 166 -3 307 -5 l257
-5 -1 100 c0 55 -3 101 -6 101 -3 1 -62 3 -131 4 -69 2 -142 4 -162 4 l-38 1
0 513 0 512 -27 0 c-16 0 -77 -2 -138 -5z"/>
<path d="M6947 5730 c-101 -26 -194 -106 -243 -210 -41 -88 -64 -167 -79 -272
-6 -43 -6 -225 -1 -263 3 -16 7 -46 10 -65 15 -102 45 -184 93 -257 66 -100
153 -151 273 -160 218 -16 359 84 435 307 14 40 23 75 21 77 -2 3 0 19 5 36
19 68 26 213 15 337 -12 143 -72 292 -147 368 -38 37 -126 90 -169 100 -39 9
-179 10 -213 2z m158 -211 c41 -21 77 -98 92 -194 9 -63 10 -355 1 -415 -14
-94 -39 -150 -79 -180 -64 -46 -141 -24 -180 51 -37 73 -48 161 -44 349 4 201
7 228 32 291 41 102 103 136 178 98z"/>
<path d="M2872 5675 c-14 -27 -27 -52 -27 -55 -1 -3 -19 -43 -42 -90 -52 -111
-94 -201 -126 -272 -14 -32 -31 -58 -36 -58 -7 0 -10 83 -8 256 l2 256 -130
-4 -130 -4 -3 -582 c-2 -549 -1 -582 15 -583 10 0 69 -2 131 -5 l112 -4 1 52
c0 29 0 116 0 193 l0 140 32 47 c18 27 34 48 37 48 4 -1 147 -347 184 -447 7
-18 14 -35 17 -37 3 -3 67 -7 143 -9 l137 -3 -6 23 c-3 13 -24 63 -46 111 -89
191 -99 213 -99 218 0 2 -15 37 -34 77 -18 40 -40 88 -49 107 -8 19 -27 61
-41 92 l-26 57 30 51 c16 28 30 55 30 60 0 6 3 10 8 10 4 0 12 10 18 23 26 55
88 162 96 165 4 2 8 7 8 12 0 5 25 52 55 105 30 54 55 99 55 100 0 2 -63 2
-141 1 l-141 -1 -26 -50z"/>
<path d="M7738 5704 c-2 -2 -23 -4 -46 -5 -24 -2 -46 -7 -49 -13 -5 -7 -7
-871 -4 -1118 l1 -37 126 4 c69 2 128 5 130 8 3 3 6 108 7 233 l2 229 43 -2
c86 -5 128 -49 151 -163 19 -94 21 -104 27 -140 6 -38 20 -89 35 -131 8 -19
16 -25 32 -22 12 1 72 4 132 6 l110 3 -3 25 c-2 13 -7 29 -11 34 -10 12 -37
111 -51 185 -6 30 -14 66 -16 79 -7 33 -50 121 -72 147 -10 12 -33 29 -50 38
-18 9 -32 18 -32 21 0 2 20 16 43 30 81 47 137 127 153 215 8 47 8 46 -5 115
-24 125 -127 215 -278 241 -15 3 -37 8 -48 11 -20 6 -322 13 -327 7z m286
-184 c31 -11 77 -56 93 -90 40 -82 1 -195 -80 -233 -36 -17 -125 -28 -133 -16
-4 7 -6 166 -4 312 l0 37 49 0 c27 0 61 -4 75 -10z"/>
<path d="M2068 5695 c-2 -2 -43 -5 -91 -6 -48 -1 -90 -6 -93 -10 -3 -5 -5 -28
-4 -52 0 -23 0 -53 -1 -67 0 -14 -1 -35 -1 -47 1 -13 1 -43 1 -68 0 -25 0 -52
0 -60 0 -8 0 -31 0 -50 0 -75 0 -114 0 -190 0 -8 0 -31 0 -50 0 -75 0 -114 0
-190 0 -8 0 -31 0 -50 0 -75 0 -114 0 -190 0 -8 1 -30 2 -47 0 -18 -1 -39 -3
-47 -4 -16 14 -19 160 -24 l102 -3 0 30 c4 228 0 1109 -4 1114 -7 7 -62 12
-68 7z"/>
<path d="M1450 5664 c-173 -44 -283 -134 -360 -293 -26 -53 -36 -84 -56 -176
-6 -29 -6 -166 0 -195 3 -14 8 -38 12 -55 8 -41 63 -154 85 -179 11 -11 19
-23 19 -27 0 -13 52 -59 105 -94 58 -37 143 -71 206 -80 66 -11 210 -8 240 3
15 6 30 8 34 4 4 -4 4 11 1 33 -4 22 -9 58 -11 80 -8 64 -15 77 -35 70 -35
-11 -137 -8 -186 5 -72 20 -142 94 -170 180 -12 36 -22 83 -24 105 -7 107 -7
104 14 222 10 50 50 121 92 159 62 58 134 77 235 64 30 -4 56 -6 58 -4 5 4 41
155 41 171 0 31 -187 36 -300 7z"/>
<path d="M8498 5683 c-14 -4 -16 -18 -16 -99 1 -52 5 -97 11 -101 5 -3 59 -6
121 -7 l111 -2 2 -439 c1 -242 2 -446 3 -453 0 -11 23 -12 113 -8 61 2 120 5
130 5 16 1 17 29 17 444 l0 444 113 -1 112 -1 3 93 2 92 -32 1 c-18 0 -60 2
-93 4 -79 5 -334 16 -462 20 -56 2 -106 5 -110 8 -5 2 -16 2 -25 0z"/>
<path d="M3045 4032 c-34 -4 -68 -28 -142 -100 -59 -57 -62 -81 -17 -120 35
-31 74 -26 222 26 111 40 141 43 198 22 32 -13 102 -104 114 -151 16 -60 3
-103 -59 -187 -31 -43 -65 -90 -75 -106 -43 -68 -9 -159 57 -150 16 2 47 15
68 29 21 14 43 25 48 25 5 0 11 4 13 9 6 16 114 79 156 90 49 14 75 10 128
-17 49 -25 79 -57 99 -104 22 -55 20 -71 -31 -218 -3 -8 -5 -16 -4 -18 0 -1
-6 -15 -14 -31 -8 -15 -16 -40 -18 -54 -2 -14 -7 -29 -11 -33 -10 -11 33 -64
60 -75 38 -14 79 11 186 117 102 100 142 125 191 117 50 -8 122 -42 148 -71
46 -49 48 -70 34 -288 -5 -82 15 -129 58 -140 54 -13 78 7 126 102 25 50 57
118 71 152 37 84 67 102 171 98 87 -3 115 -17 155 -75 20 -30 44 -113 58 -206
16 -111 43 -155 93 -155 53 0 70 36 117 244 21 93 33 124 54 146 30 30 95 47
184 46 65 -1 70 -5 117 -106 16 -36 34 -72 40 -80 5 -8 21 -38 35 -67 50 -103
110 -131 161 -76 25 27 25 28 21 177 -3 86 -1 160 5 175 31 83 157 144 238
116 22 -8 70 -46 121 -95 46 -45 98 -94 117 -108 55 -42 121 -26 136 34 8 29
-9 91 -53 193 -49 115 -41 179 31 248 46 45 100 65 150 58 49 -8 136 -45 163
-72 30 -28 107 -79 132 -87 49 -16 97 47 83 108 -4 18 -32 66 -62 107 -69 92
-88 129 -92 176 -3 36 16 101 32 113 5 3 18 19 30 37 33 47 76 74 119 75 22 0
89 -19 158 -46 138 -53 175 -57 210 -21 48 47 35 71 -92 172 -59 47 -65 49
-115 47 -29 -2 -159 -6 -288 -9 -129 -4 -269 -8 -310 -9 l-75 -3 -100 -99
c-209 -206 -436 -370 -542 -390 -111 -22 -240 13 -323 86 -100 89 -231 165
-303 177 -59 10 -161 7 -212 -6 -75 -21 -172 -74 -256 -141 -156 -126 -282
-153 -420 -90 -55 25 -60 28 -191 123 -140 102 -154 114 -277 235 l-105 103
-131 4 c-438 13 -549 16 -554 18 -3 2 -19 1 -36 -1z m2176 -478 c10 -9 19 -14
19 -10 0 16 74 -71 88 -104 35 -83 -2 -191 -86 -251 -36 -26 -56 -33 -100 -35
-66 -3 -102 12 -153 60 -68 63 -91 153 -58 225 20 46 80 108 124 128 40 18
140 11 166 -13z"/>
<path d="M5904 3828 l-19 -23 23 19 c12 11 22 21 22 23 0 8 -8 2 -26 -19z"/>
</g>
</svg>
